<svg width="15" height="15" viewBox="0 0 15 15" fill="none" xmlns="http://www.w3.org/2000/svg">
<g clip-path="url(#clip0)">
<path d="M7.97597 8.78872C6.54424 7.357 6.22097 5.92528 6.14803 5.35166C6.12766 5.19305 6.18224 5.03399 6.29571 4.92131L7.45433 3.76321C7.62476 3.59288 7.65501 3.32743 7.52726 3.12312L5.68252 0.258639C5.54119 0.0324101 5.25099 -0.0492381 5.01243 0.0701044L2.05097 1.46485C1.85805 1.55984 1.74458 1.76481 1.76648 1.97872C1.92165 3.45286 2.56433 7.07665 6.12553 10.6381C9.68674 14.1996 13.31 14.842 14.7849 14.9972C14.9988 15.0191 15.2038 14.9056 15.2988 14.7127L16.6936 11.7512C16.8124 11.5132 16.7313 11.2238 16.5061 11.0822L13.6416 9.23795C13.4374 9.11006 13.1719 9.14009 13.0015 9.31036L11.8434 10.469C11.7307 10.5825 11.5716 10.637 11.413 10.6167C10.8394 10.5437 9.40769 10.2204 7.97597 8.78872Z" fill="white"/>
<path d="M13.6612 8.01722C13.3756 8.01722 13.144 7.78564 13.144 7.49998C13.1416 5.3585 11.4062 3.62309 9.26468 3.62067C8.97901 3.62067 8.74744 3.38909 8.74744 3.10342C8.74744 2.81776 8.97901 2.58618 9.26468 2.58618C11.9772 2.58917 14.1755 4.7874 14.1785 7.49998C14.1785 7.78564 13.9469 8.01722 13.6612 8.01722Z" fill="white"/>
<path d="M16.2474 8.01724C15.9618 8.01724 15.7302 7.78567 15.7302 7.5C15.7262 3.93085 12.8338 1.03847 9.26468 1.03448C8.97901 1.03448 8.74744 0.802906 8.74744 0.517241C8.74744 0.231577 8.97901 0 9.26468 0C13.4049 0.004561 16.7601 3.35976 16.7647 7.5C16.7647 7.63718 16.7102 7.76874 16.6132 7.86575C16.5162 7.96275 16.3846 8.01724 16.2474 8.01724Z" fill="white"/>
</g>
<defs>
<clipPath id="clip0">
<rect width="15" height="15" fill="white"/>
</clipPath>
</defs>
</svg>
