<svg xmlns="http://www.w3.org/2000/svg" xmlns:xlink="http://www.w3.org/1999/xlink" width="54" height="54" viewBox="0 0 54 54">
  <metadata><?xpacket begin="﻿" id="W5M0MpCehiHzreSzNTczkc9d"?>
<x:xmpmeta xmlns:x="adobe:ns:meta/" x:xmptk="Adobe XMP Core 5.6-c142 79.160924, 2017/07/13-01:06:39        ">
   <rdf:RDF xmlns:rdf="http://www.w3.org/1999/02/22-rdf-syntax-ns#">
      <rdf:Description rdf:about=""/>
   </rdf:RDF>
</x:xmpmeta>
                                                                                                    
                                                                                                    
                                                                                                    
                                                                                                    
                                                                                                    
                                                                                                    
                                                                                                    
                                                                                                    
                                                                                                    
                                                                                                    
                                                                                                    
                                                                                                    
                                                                                                    
                                                                                                    
                                                                                                    
                                                                                                    
                                                                                                    
                                                                                                    
                                                                                                    
                                                                                                    
                           
<?xpacket end="w"?></metadata>
<defs>
    <style>
      .cls-1 {
        fill-rule: evenodd;
        filter: url(#filter);
      }
    </style>
    <filter id="filter" x="0" y="5" width="54" height="44" filterUnits="userSpaceOnUse">
      <feFlood result="flood" flood-color="#c7b299"/>
      <feComposite result="composite" operator="in" in2="SourceGraphic"/>
      <feBlend result="blend" in2="SourceGraphic"/>
    </filter>
  </defs>
  <path id="icon" class="cls-1" d="M52.31,45.611H1.691a1.692,1.692,0,0,0,0,3.384H52.31A1.692,1.692,0,0,0,52.31,45.611ZM28.688,11.771V8.387h3.375a1.692,1.692,0,0,0,0-3.384H21.939a1.692,1.692,0,0,0,0,3.384h3.375s-0.012,3.523,0,3.384A27.1,27.1,0,0,0,0,38.843v1.692a1.69,1.69,0,0,0,1.687,1.692H52.31A1.691,1.691,0,0,0,54,40.535V38.843A27.1,27.1,0,0,0,28.688,11.771ZM3.378,38.843a23.623,23.623,0,1,1,47.245,0H3.378Z"/>
</svg>
