<svg xmlns="http://www.w3.org/2000/svg" xmlns:xlink="http://www.w3.org/1999/xlink" width="54" height="54" viewBox="0 0 54 54">
  <metadata><?xpacket begin="﻿" id="W5M0MpCehiHzreSzNTczkc9d"?>
<x:xmpmeta xmlns:x="adobe:ns:meta/" x:xmptk="Adobe XMP Core 5.6-c142 79.160924, 2017/07/13-01:06:39        ">
   <rdf:RDF xmlns:rdf="http://www.w3.org/1999/02/22-rdf-syntax-ns#">
      <rdf:Description rdf:about=""/>
   </rdf:RDF>
</x:xmpmeta>
                                                                                                    
                                                                                                    
                                                                                                    
                                                                                                    
                                                                                                    
                                                                                                    
                                                                                                    
                                                                                                    
                                                                                                    
                                                                                                    
                                                                                                    
                                                                                                    
                                                                                                    
                                                                                                    
                                                                                                    
                                                                                                    
                                                                                                    
                                                                                                    
                                                                                                    
                                                                                                    
                           
<?xpacket end="w"?></metadata>
<defs>
    <style>
      .cls-1 {
        fill-rule: evenodd;
        filter: url(#filter);
      }
    </style>
    <filter id="filter" x="5" y="5" width="44" height="44" filterUnits="userSpaceOnUse">
      <feFlood result="flood" flood-color="#c7b299"/>
      <feComposite result="composite" operator="in" in2="SourceGraphic"/>
      <feBlend result="blend" in2="SourceGraphic"/>
    </filter>
  </defs>
  <path id="icon" class="cls-1" d="M33.873,28.374H20.126a1.375,1.375,0,0,0,0,2.75H33.873A1.375,1.375,0,0,0,33.873,28.374Zm2.749-8.248H17.376a1.375,1.375,0,1,0,0,2.749H36.622A1.375,1.375,0,1,0,36.622,20.126ZM27,5C14.852,5,5,13.62,5,24.25a18.423,18.423,0,0,0,8.248,15.011V49l9.636-5.847A25.25,25.25,0,0,0,27,43.5c12.149,0,22-8.617,22-19.247S39.148,5,27,5Zm0,35.744a22.231,22.231,0,0,1-4.647-.5L15.88,44.133l0.087-6.376c-4.962-2.984-8.214-7.917-8.214-13.507,0-9.11,8.617-16.5,19.247-16.5s19.247,7.387,19.247,16.5S37.629,40.747,27,40.747Z"/>
</svg>
