<svg xmlns="http://www.w3.org/2000/svg" xmlns:xlink="http://www.w3.org/1999/xlink" width="54" height="54" viewBox="0 0 54 54">
  <metadata><?xpacket begin="﻿" id="W5M0MpCehiHzreSzNTczkc9d"?>
<x:xmpmeta xmlns:x="adobe:ns:meta/" x:xmptk="Adobe XMP Core 5.6-c142 79.160924, 2017/07/13-01:06:39        ">
   <rdf:RDF xmlns:rdf="http://www.w3.org/1999/02/22-rdf-syntax-ns#">
      <rdf:Description rdf:about=""/>
   </rdf:RDF>
</x:xmpmeta>
                                                                                                    
                                                                                                    
                                                                                                    
                                                                                                    
                                                                                                    
                                                                                                    
                                                                                                    
                                                                                                    
                                                                                                    
                                                                                                    
                                                                                                    
                                                                                                    
                                                                                                    
                                                                                                    
                                                                                                    
                                                                                                    
                                                                                                    
                                                                                                    
                                                                                                    
                                                                                                    
                           
<?xpacket end="w"?></metadata>
<defs>
    <style>
      .cls-1 {
        fill-rule: evenodd;
        filter: url(#filter);
      }
    </style>
    <filter id="filter" x="3" y="5" width="48" height="44" filterUnits="userSpaceOnUse">
      <feFlood result="flood" flood-color="#c7b299"/>
      <feComposite result="composite" operator="in" in2="SourceGraphic"/>
      <feBlend result="blend" in2="SourceGraphic"/>
    </filter>
  </defs>
  <path id="icon" class="cls-1" d="M49.043,47.749A1.243,1.243,0,0,1,47.809,49H4.234a1.251,1.251,0,0,1,0-2.5H47.809A1.243,1.243,0,0,1,49.043,47.749ZM24.769,27.213a1.222,1.222,0,0,0,1.744-.061,1.263,1.263,0,0,0-.06-1.768c-2.116-2-1.663-6.07.155-8.37,2.467-3.12,3.01-8.684-.155-11.677a1.223,1.223,0,0,0-1.744.061,1.263,1.263,0,0,0,.061,1.768c1.9,1.8,1.858,5.822-.087,8.283a10.17,10.17,0,0,0-2.1,5.947A7.58,7.58,0,0,0,24.769,27.213ZM51,24.614v2.4a6.2,6.2,0,0,1-6.154,6.239H42.091A13.513,13.513,0,0,1,29.405,42.3H22.639A13.585,13.585,0,0,1,9.163,28.643V16.232A1.243,1.243,0,0,1,10.4,14.981h7.915c1.607-2.476,1.535-6.127-.249-7.815A1.263,1.263,0,0,1,18,5.4a1.222,1.222,0,0,1,1.744-.061c3.164,2.993,2.622,8.557.155,11.677-1.819,2.3-2.271,6.368-.155,8.37a1.263,1.263,0,0,1,.06,1.768,1.223,1.223,0,0,1-1.744.061A7.582,7.582,0,0,1,15.879,21.4a10.407,10.407,0,0,1,.881-3.913H11.63v11.16A11.1,11.1,0,0,0,22.639,39.8h6.767A11.1,11.1,0,0,0,40.413,28.643V17.483H31.135a1.251,1.251,0,0,1,0-2.5H41.647a1.243,1.243,0,0,1,1.234,1.251v2.143h1.965A6.2,6.2,0,0,1,51,24.614Zm-2.468,0a3.716,3.716,0,0,0-3.686-3.737H42.881v9.874h1.965a3.716,3.716,0,0,0,3.686-3.737v-2.4Z"/>
</svg>
