<svg xmlns="http://www.w3.org/2000/svg" xmlns:xlink="http://www.w3.org/1999/xlink" width="54" height="54" viewBox="0 0 54 54">
  <metadata><?xpacket begin="﻿" id="W5M0MpCehiHzreSzNTczkc9d"?>
<x:xmpmeta xmlns:x="adobe:ns:meta/" x:xmptk="Adobe XMP Core 5.6-c142 79.160924, 2017/07/13-01:06:39        ">
   <rdf:RDF xmlns:rdf="http://www.w3.org/1999/02/22-rdf-syntax-ns#">
      <rdf:Description rdf:about=""/>
   </rdf:RDF>
</x:xmpmeta>
                                                                                                    
                                                                                                    
                                                                                                    
                                                                                                    
                                                                                                    
                                                                                                    
                                                                                                    
                                                                                                    
                                                                                                    
                                                                                                    
                                                                                                    
                                                                                                    
                                                                                                    
                                                                                                    
                                                                                                    
                                                                                                    
                                                                                                    
                                                                                                    
                                                                                                    
                                                                                                    
                           
<?xpacket end="w"?></metadata>
<defs>
    <style>
      .cls-1 {
        fill-rule: evenodd;
        filter: url(#filter);
      }
    </style>
    <filter id="filter" x="5" y="5" width="44" height="44" filterUnits="userSpaceOnUse">
      <feFlood result="flood" flood-color="#c7b299"/>
      <feComposite result="composite" operator="in" in2="SourceGraphic"/>
      <feBlend result="blend" in2="SourceGraphic"/>
    </filter>
  </defs>
  <path id="icon" class="cls-1" d="M35.25,5c-0.424,0-.847.026-1.268,0.064-0.154.014-.306,0.036-0.459,0.057-0.258.031-.513,0.07-0.768,0.117q-0.282.052-.552,0.114c-0.211.048-.42,0.1-0.63,0.162s-0.4.109-.591,0.172c-0.177.058-.349,0.128-0.524,0.193a14.08,14.08,0,0,0-1.343.583c-0.086.042-.176,0.081-0.26,0.127-0.228.121-.449,0.255-0.671,0.388C28.063,7.05,27.94,7.12,27.819,7.2c-0.215.138-.422,0.285-0.628,0.433-0.062.046-.128,0.086-0.192,0.133A13.736,13.736,0,0,0,5,18.75c0,12.445,8,23.7,21.406,30.113a1.36,1.36,0,0,0,1.188,0C41,42.452,49,31.195,49,18.75A13.765,13.765,0,0,0,35.25,5ZM27,46.1C14.934,40.108,7.75,29.927,7.75,18.75A10.971,10.971,0,0,1,24.94,9.683,13.672,13.672,0,0,0,21.5,18.75a1.375,1.375,0,0,0,2.75,0,10.963,10.963,0,0,1,3.724-8.227c0.211-.189.431-0.366,0.654-0.536,0.051-.036.1-0.075,0.152-0.113,0.219-.159.443-0.312,0.673-0.454,0.063-.04.126-0.079,0.191-0.117,0.221-.133.448-0.257,0.678-0.373,0.079-.04.161-0.079,0.242-0.117,0.22-.1.443-0.2,0.67-0.292,0.1-.04.2-0.076,0.3-0.113,0.214-.077.428-0.15,0.646-0.213,0.133-.037.262-0.071,0.395-0.1,0.2-.049.392-0.1,0.594-0.14,0.181-.033.365-0.058,0.548-0.084,0.156-.024.312-0.05,0.47-0.066,0.349-.033.7-0.054,1.061-0.054a11.013,11.013,0,0,1,11,11C46.25,29.927,39.066,40.108,27,46.1Zm8.25-35.6a1.375,1.375,0,0,0,0,2.75,5.505,5.505,0,0,1,5.5,5.5,1.375,1.375,0,0,0,2.75,0A8.259,8.259,0,0,0,35.25,10.5Z"/>
</svg>
