<svg xmlns="http://www.w3.org/2000/svg" xmlns:xlink="http://www.w3.org/1999/xlink" width="54" height="54" viewBox="0 0 54 54">
  <metadata><?xpacket begin="﻿" id="W5M0MpCehiHzreSzNTczkc9d"?>
<x:xmpmeta xmlns:x="adobe:ns:meta/" x:xmptk="Adobe XMP Core 5.6-c142 79.160924, 2017/07/13-01:06:39        ">
   <rdf:RDF xmlns:rdf="http://www.w3.org/1999/02/22-rdf-syntax-ns#">
      <rdf:Description rdf:about=""/>
   </rdf:RDF>
</x:xmpmeta>
                                                                                                    
                                                                                                    
                                                                                                    
                                                                                                    
                                                                                                    
                                                                                                    
                                                                                                    
                                                                                                    
                                                                                                    
                                                                                                    
                                                                                                    
                                                                                                    
                                                                                                    
                                                                                                    
                                                                                                    
                                                                                                    
                                                                                                    
                                                                                                    
                                                                                                    
                                                                                                    
                           
<?xpacket end="w"?></metadata>
<defs>
    <style>
      .cls-1 {
        fill-rule: evenodd;
        filter: url(#filter);
      }
    </style>
    <filter id="filter" x="5" y="5" width="44" height="44" filterUnits="userSpaceOnUse">
      <feFlood result="flood" flood-color="#c7b299"/>
      <feComposite result="composite" operator="in" in2="SourceGraphic"/>
      <feBlend result="blend" in2="SourceGraphic"/>
    </filter>
  </defs>
  <path id="icon" class="cls-1" d="M24.937,35.25c5.688,0,10.312-5.629,10.312-12.547S30.625,10.156,24.937,10.156a9.445,9.445,0,0,0-7.395,3.788A14.012,14.012,0,0,0,14.625,22.7C14.625,29.622,19.25,35.25,24.937,35.25Zm0-22.344c4.169,0,7.562,4.395,7.562,9.8s-3.393,9.8-7.562,9.8-7.562-4.394-7.565-9.8S20.765,12.906,24.937,12.906ZM33.6,33.875a1.375,1.375,0,1,0,0,2.75,8.537,8.537,0,0,1,8.527,8.528,1.1,1.1,0,0,1-1.1,1.1H8.848a1.1,1.1,0,0,1-1.1-1.1,8.536,8.536,0,0,1,8.524-8.528,1.375,1.375,0,1,0,0-2.75A11.289,11.289,0,0,0,5,45.153,3.852,3.852,0,0,0,8.848,49H41.024a3.854,3.854,0,0,0,3.851-3.847A11.291,11.291,0,0,0,33.6,33.875ZM25.943,8.629a6.049,6.049,0,0,1,3.12-.878c4.169,0,7.562,4.395,7.562,9.8a12.449,12.449,0,0,1-.319,2.828,1.373,1.373,0,0,0,1.023,1.652,1.305,1.305,0,0,0,.316.037A1.376,1.376,0,0,0,38.982,21a15.292,15.292,0,0,0,.394-3.457C39.375,10.629,34.75,5,29.063,5a8.883,8.883,0,0,0-4.518,1.261A1.375,1.375,0,0,0,25.943,8.629ZM38,28.375a1.375,1.375,0,1,0,0,2.75,8.385,8.385,0,0,1,8.25,8.618,1.059,1.059,0,0,1-.094.448,1.375,1.375,0,0,0,2.514,1.117A3.843,3.843,0,0,0,49,39.74,11.136,11.136,0,0,0,38,28.375Z"/>
</svg>
