<svg xmlns="http://www.w3.org/2000/svg" xmlns:xlink="http://www.w3.org/1999/xlink" width="49" height="49" viewBox="0 0 49 49">
  <metadata><?xpacket begin="﻿" id="W5M0MpCehiHzreSzNTczkc9d"?>
<x:xmpmeta xmlns:x="adobe:ns:meta/" x:xmptk="Adobe XMP Core 5.6-c142 79.160924, 2017/07/13-01:06:39        ">
   <rdf:RDF xmlns:rdf="http://www.w3.org/1999/02/22-rdf-syntax-ns#">
      <rdf:Description rdf:about=""/>
   </rdf:RDF>
</x:xmpmeta>
                                                                                                    
                                                                                                    
                                                                                                    
                                                                                                    
                                                                                                    
                                                                                                    
                                                                                                    
                                                                                                    
                                                                                                    
                                                                                                    
                                                                                                    
                                                                                                    
                                                                                                    
                                                                                                    
                                                                                                    
                                                                                                    
                                                                                                    
                                                                                                    
                                                                                                    
                                                                                                    
                           
<?xpacket end="w"?></metadata>
<defs>
    <style>
      .cls-1 {
        fill-rule: evenodd;
        filter: url(#filter);
      }
    </style>
    <filter id="filter" x="0" y="13" width="49" height="35" filterUnits="userSpaceOnUse">
      <feFlood result="flood" flood-color="#555"/>
      <feComposite result="composite" operator="in" in2="SourceGraphic"/>
      <feBlend result="blend" in2="SourceGraphic"/>
    </filter>
  </defs>
  <path id="icon" class="cls-1" d="M7.946,25.675a6.538,6.538,0,0,1,5.531-3.545H38.717V20.505a2.412,2.412,0,0,0-2.367-2.439H25.933V16.649a3.608,3.608,0,0,0-3.548-3.658H16.326a3.472,3.472,0,0,0-2.511,1.076,3.667,3.667,0,0,0-1.041,2.581v1.419H2.356A2.408,2.408,0,0,0-.011,20.505V42.281Zm7.195-9.026a1.24,1.24,0,0,1,.349-0.859,1.143,1.143,0,0,1,.834-0.361h6.059a1.2,1.2,0,0,1,1.183,1.22v1.419H15.14V16.649ZM39.654,45.833a4.161,4.161,0,0,1-3.412,2.182h-34A1.391,1.391,0,0,1,.926,45.833l9.142-19.081a4.153,4.153,0,0,1,3.408-2.186h34a1.393,1.393,0,0,1,1.321,2.186Z"/>
</svg>
