<svg xmlns="http://www.w3.org/2000/svg" xmlns:xlink="http://www.w3.org/1999/xlink" width="49" height="49" viewBox="0 0 49 49">
  <metadata><?xpacket begin="﻿" id="W5M0MpCehiHzreSzNTczkc9d"?>
<x:xmpmeta xmlns:x="adobe:ns:meta/" x:xmptk="Adobe XMP Core 5.6-c142 79.160924, 2017/07/13-01:06:39        ">
   <rdf:RDF xmlns:rdf="http://www.w3.org/1999/02/22-rdf-syntax-ns#">
      <rdf:Description rdf:about=""/>
   </rdf:RDF>
</x:xmpmeta>
                                                                                                    
                                                                                                    
                                                                                                    
                                                                                                    
                                                                                                    
                                                                                                    
                                                                                                    
                                                                                                    
                                                                                                    
                                                                                                    
                                                                                                    
                                                                                                    
                                                                                                    
                                                                                                    
                                                                                                    
                                                                                                    
                                                                                                    
                                                                                                    
                                                                                                    
                                                                                                    
                           
<?xpacket end="w"?></metadata>
<defs>
    <style>
      .cls-1 {
        fill-rule: evenodd;
        filter: url(#filter);
      }
    </style>
    <filter id="filter" x="0.969" y="1" width="47.031" height="47" filterUnits="userSpaceOnUse">
      <feFlood result="flood" flood-color="#555"/>
      <feComposite result="composite" operator="in" in2="SourceGraphic"/>
      <feBlend result="blend" in2="SourceGraphic"/>
    </filter>
  </defs>
  <path id="icon" class="cls-1" d="M47.989,24.507a4.658,4.658,0,0,0-2.811-4.161,6.452,6.452,0,0,1-3.5-2.959,6.5,6.5,0,0,1,.383-4.568,4.673,4.673,0,0,0-.957-4.935,4.667,4.667,0,0,0-4.934-.955,6.482,6.482,0,0,1-4.565.385,6.484,6.484,0,0,1-2.957-3.5,4.492,4.492,0,0,0-8.332,0,6.485,6.485,0,0,1-2.957,3.5A6.481,6.481,0,0,1,12.8,6.929a4.668,4.668,0,0,0-4.934.955,4.672,4.672,0,0,0-.957,4.935,6.482,6.482,0,0,1,.381,4.567A6.473,6.473,0,0,1,3.8,20.345a4.488,4.488,0,0,0,0,8.327,6.5,6.5,0,0,1,3.5,2.96,6.471,6.471,0,0,1-.383,4.563,4.667,4.667,0,0,0,.957,4.933,4.665,4.665,0,0,0,4.934.957,6.476,6.476,0,0,1,4.565-.381,6.494,6.494,0,0,1,2.957,3.5,4.5,4.5,0,0,0,8.332,0,6.518,6.518,0,0,1,2.955-3.5,6.483,6.483,0,0,1,4.567.385,4.491,4.491,0,0,0,5.891-5.89,6.5,6.5,0,0,1-.386-4.564,6.488,6.488,0,0,1,3.5-2.959A4.669,4.669,0,0,0,47.989,24.507Zm-23.5,8.623A8.619,8.619,0,1,1,33.1,24.516,8.614,8.614,0,0,1,24.487,33.129Z"/>
</svg>
