<svg xmlns="http://www.w3.org/2000/svg" width="24" height="24" viewBox="0 0 24 24">
  <metadata><?xpacket begin="﻿" id="W5M0MpCehiHzreSzNTczkc9d"?>
<x:xmpmeta xmlns:x="adobe:ns:meta/" x:xmptk="Adobe XMP Core 5.6-c142 79.160924, 2017/07/13-01:06:39        ">
   <rdf:RDF xmlns:rdf="http://www.w3.org/1999/02/22-rdf-syntax-ns#">
      <rdf:Description rdf:about=""/>
   </rdf:RDF>
</x:xmpmeta>
                                                                                                    
                                                                                                    
                                                                                                    
                                                                                                    
                                                                                                    
                                                                                                    
                                                                                                    
                                                                                                    
                                                                                                    
                                                                                                    
                                                                                                    
                                                                                                    
                                                                                                    
                                                                                                    
                                                                                                    
                                                                                                    
                                                                                                    
                                                                                                    
                                                                                                    
                                                                                                    
                           
<?xpacket end="w"?></metadata>
<defs>
    <style>
      .cls-1 {
        fill: #f2006c;
        fill-rule: evenodd;
      }
    </style>
  </defs>
  <path id="Shape_1_копия" data-name="Shape 1 копия" class="cls-1" d="M1442.51,99.011h-11.02a6.489,6.489,0,0,0-6.48,6.478v11.02a6.488,6.488,0,0,0,6.48,6.478h11.02a6.488,6.488,0,0,0,6.48-6.478v-11.02A6.489,6.489,0,0,0,1442.51,99.011Zm4.54,17.5a4.548,4.548,0,0,1-4.54,4.541h-11.02a4.548,4.548,0,0,1-4.54-4.541v-11.02a4.548,4.548,0,0,1,4.54-4.541h11.02a4.548,4.548,0,0,1,4.54,4.541v11.02Zm-4.68-6.346a5.382,5.382,0,1,0-5.33,6.166,5.627,5.627,0,0,0,.8-0.059A5.377,5.377,0,0,0,1442.37,110.163Zm-4.82,4.191a3.44,3.44,0,1,1-1.01-6.8,3.5,3.5,0,0,1,.51-0.037,3.365,3.365,0,0,1,.5.037A3.439,3.439,0,0,1,1437.55,114.354Zm6.2-10.1a0.993,0.993,0,0,0-.69-0.284,0.969,0.969,0,0,0-.68.284,0.969,0.969,0,0,0,.68,1.653,1,1,0,0,0,.69-0.284A0.977,0.977,0,0,0,1443.75,104.254Z" transform="translate(-1425 -99)"/>
</svg>
