<svg xmlns="http://www.w3.org/2000/svg" width="30.71" height="17.938" viewBox="0 0 30.71 17.938">
  <metadata><?xpacket begin="﻿" id="W5M0MpCehiHzreSzNTczkc9d"?>
<x:xmpmeta xmlns:x="adobe:ns:meta/" x:xmptk="Adobe XMP Core 5.6-c142 79.160924, 2017/07/13-01:06:39        ">
   <rdf:RDF xmlns:rdf="http://www.w3.org/1999/02/22-rdf-syntax-ns#">
      <rdf:Description rdf:about=""/>
   </rdf:RDF>
</x:xmpmeta>
                                                                                                    
                                                                                                    
                                                                                                    
                                                                                                    
                                                                                                    
                                                                                                    
                                                                                                    
                                                                                                    
                                                                                                    
                                                                                                    
                                                                                                    
                                                                                                    
                                                                                                    
                                                                                                    
                                                                                                    
                                                                                                    
                                                                                                    
                                                                                                    
                                                                                                    
                                                                                                    
                           
<?xpacket end="w"?></metadata>
<defs>
    <style>
      .cls-1 {
        fill: #f2006c;
        fill-rule: evenodd;
      }
    </style>
  </defs>
  <path id="Shape_1_копия" data-name="Shape 1 копия" class="cls-1" d="M1506,115.782a26.72,26.72,0,0,0-2.16-2.208c-0.25-.244-0.52-0.5-0.77-0.745h0a1.444,1.444,0,0,1-.53-0.749,1.42,1.42,0,0,1,.37-0.809c0.4-.57.84-1.142,1.26-1.694,0.37-.491.75-1,1.12-1.51l0.09-.114a11.781,11.781,0,0,0,1.86-3.284,1.4,1.4,0,0,0-1.24-2.031,3.053,3.053,0,0,0-.52-0.033l-4.67-.005a1.649,1.649,0,0,0-1.67,1.138c-0.24.614-.53,1.326-0.87,2a16.238,16.238,0,0,1-2.63,4.054l-0.05.056a1.487,1.487,0,0,1-.28.257,1.31,1.31,0,0,1-.26-0.779V109.31l-0.01-5.4V103.83a1.76,1.76,0,0,0-1.53-1.783,0.7,0.7,0,0,0-.12-0.011h-4.86a2.158,2.158,0,0,0-1.78.872,0.948,0.948,0,0,0-.26.914,0.924,0.924,0,0,0,.76.549,1.012,1.012,0,0,1,.89.972,15.282,15.282,0,0,1,.06,3.741,2.76,2.76,0,0,1-.2.925,0.691,0.691,0,0,1-.07.134,0.638,0.638,0,0,1-.13-0.074,4.037,4.037,0,0,1-.92-1.033,24.948,24.948,0,0,1-2.79-5.165,1.835,1.835,0,0,0-1.72-1.254c-1.5-.025-2.88-0.025-4.23,0a1.492,1.492,0,0,0-1.33.6,1.508,1.508,0,0,0,.03,1.458,51.847,51.847,0,0,0,5.51,9.824,14.031,14.031,0,0,0,4.33,4.043,11.2,11.2,0,0,0,5.72,1.422c0.25,0,.5-0.006.76-0.019a1.722,1.722,0,0,0,1.95-1.907,3.978,3.978,0,0,1,.38-1.741,0.451,0.451,0,0,1,.23-0.244,0.507,0.507,0,0,1,.33.115,3.787,3.787,0,0,1,.66.588c0.18,0.2.36,0.407,0.54,0.607,0.38,0.426.78,0.866,1.19,1.287a3.929,3.929,0,0,0,3.2,1.3l4.27,0h0.04a1.444,1.444,0,0,0,1.17-.749,1.9,1.9,0,0,0-.01-1.81A9.456,9.456,0,0,0,1506,115.782Zm0.05,2.811a0.219,0.219,0,0,1-.17.128h-4.27a0.418,0.418,0,0,0-.05,0,2.7,2.7,0,0,1-2.25-.931c-0.39-.4-0.77-0.83-1.15-1.246-0.18-.2-0.36-0.412-0.55-0.618a4.561,4.561,0,0,0-.89-0.787,1.619,1.619,0,0,0-1.3-.277,1.576,1.576,0,0,0-1,.843,5.064,5.064,0,0,0-.53,2.273,1.01,1.01,0,0,1-.13.609,1.143,1.143,0,0,1-.66.132,10.377,10.377,0,0,1-5.81-1.242,12.775,12.775,0,0,1-3.95-3.708,50.305,50.305,0,0,1-5.38-9.6,1.188,1.188,0,0,1-.1-0.289,1.053,1.053,0,0,1,.3-0.039c1.34-.026,2.71-0.027,4.19,0a0.633,0.633,0,0,1,.61.492,26.566,26.566,0,0,0,2.92,5.411,5.12,5.12,0,0,0,1.23,1.336,1.251,1.251,0,0,0,2.02-.595,4.162,4.162,0,0,0,.29-1.294,16.616,16.616,0,0,0-.07-4.029,2.221,2.221,0,0,0-1.28-1.809,0.968,0.968,0,0,1,.46-0.092h4.8a0.522,0.522,0,0,1,.34.155,1.46,1.46,0,0,1,.15.539V109.3a2.125,2.125,0,0,0,1.09,1.961,0.041,0.041,0,0,0,.02.007,1.466,1.466,0,0,0,1.56-.585l0.04-.052a17.448,17.448,0,0,0,2.84-4.354c0.36-.713.65-1.452,0.91-2.089a0.443,0.443,0,0,1,.52-0.366h0.01l4.67,0a2.138,2.138,0,0,1,.31.016,1.036,1.036,0,0,1,.35.1,1.071,1.071,0,0,1-.07.35,10.52,10.52,0,0,1-1.69,2.936l-0.08.115c-0.36.5-.74,1-1.11,1.487-0.42.56-.86,1.139-1.28,1.722-0.89,1.241-.81,2.064.3,3.147,0.26,0.256.53,0.511,0.79,0.757a24.372,24.372,0,0,1,2.06,2.1,8.326,8.326,0,0,1,.96,1.382A0.7,0.7,0,0,1,1506.05,118.593Zm-24.95-12.779-0.27-.535a0.609,0.609,0,1,0-1.09.542l0.27,0.545A0.611,0.611,0,1,0,1481.1,105.814Zm3.84,6.352a41.479,41.479,0,0,1-2.87-4.517,0.611,0.611,0,1,0-1.07.592,40.655,40.655,0,0,0,2.96,4.652,0.6,0.6,0,0,0,.49.249A0.613,0.613,0,0,0,1484.94,112.166Z" transform="translate(-1476.63 -102.031)"/>
</svg>
