<svg width="17" height="17" viewBox="0 0 17 17" fill="none" xmlns="http://www.w3.org/2000/svg">
<g clip-path="url(#clip0)">
<path d="M9.03948 9.96055C7.41686 8.33793 7.05048 6.71531 6.96783 6.0652C6.94473 5.88545 7.00659 5.70518 7.13519 5.57748L8.44829 4.26496C8.64145 4.07192 8.67573 3.77108 8.53095 3.53953L6.44024 0.293118C6.28007 0.0367253 5.95118 -0.0558093 5.68081 0.0794455L2.32448 1.66015C2.10585 1.76781 1.97725 2.00011 2.00207 2.24255C2.17793 3.91324 2.90629 8.0202 6.94233 12.0565C10.9784 16.0929 15.0847 16.8209 16.7563 16.9968C16.9988 17.0216 17.231 16.893 17.3387 16.6744L18.9194 13.318C19.0542 13.0483 18.9622 12.7203 18.7069 12.5598L15.4605 10.4697C15.2291 10.3247 14.9283 10.3588 14.7351 10.5517L13.4226 11.8648C13.2949 11.9934 13.1146 12.0553 12.9348 12.0322C12.2847 11.9495 10.6621 11.5832 9.03948 9.96055Z" fill="#292D34"/>
<path d="M15.4828 9.08621C15.159 9.08621 14.8966 8.82375 14.8966 8.5C14.8938 6.07299 12.927 4.10619 10.5 4.10344C10.1763 4.10344 9.91382 3.84099 9.91382 3.51724C9.91382 3.19348 10.1763 2.93103 10.5 2.93103C13.5743 2.93442 16.0656 5.42575 16.069 8.5C16.069 8.82375 15.8065 9.08621 15.4828 9.08621Z" fill="#292D34"/>
<path d="M18.4138 9.08621C18.0901 9.08621 17.8276 8.82375 17.8276 8.5C17.8231 4.45496 14.5451 1.17694 10.5 1.17241C10.1763 1.17241 9.91382 0.90996 9.91382 0.586207C9.91382 0.262454 10.1763 0 10.5 0C15.1923 0.00516914 18.9949 3.80772 19 8.5C19 8.65547 18.9383 8.80458 18.8283 8.91451C18.7184 9.02445 18.5693 9.08621 18.4138 9.08621Z" fill="#292D34"/>
</g>
<defs>
<clipPath id="clip0">
<rect width="17" height="17" fill="white"/>
</clipPath>
</defs>
</svg>
